<svg xmlns="http://www.w3.org/2000/svg" viewBox="0 0 32 32" fill="none">
  <!-- Study Hub mark: open notebook + accent bookmark -->
  <rect width="32" height="32" rx="8" fill="#2f6fed"/>
  <path d="M8 7.5h7.2c.7 0 1.3.3 1.8.8l.5.5.5-.5c.5-.5 1.1-.8 1.8-.8H27v16.2c0 .7-.6 1.3-1.3 1.3h-6.4c-.5 0-1 .2-1.3.5l-.5.5-.5-.5c-.3-.3-.8-.5-1.3-.5H9.3c-.7 0-1.3-.6-1.3-1.3V7.5z" fill="#fff" fill-opacity=".95"/>
  <path d="M16 9v14.5" stroke="#2f6fed" stroke-width="1.2" stroke-linecap="round" opacity=".35"/>
  <path d="M10.2 12.2h3.8M10.2 15h3.8M10.2 17.8h2.6M18.2 12.2h3.8M18.2 15h3.8" stroke="#2f6fed" stroke-width="1.35" stroke-linecap="round"/>
  <rect x="22.5" y="6" width="2.8" height="8" rx="1" fill="#fbbf24"/>
</svg>
